<?xml version="1.0" encoding="UTF-8" standalone="no"?>
<!DOCTYPE svg PUBLIC "-//W3C//DTD SVG 1.1//EN" "http://www.w3.org/Graphics/SVG/1.1/DTD/svg11.dtd">
<svg width="100%" height="30pt" viewBox="0 0 43 43" version="1.1" xmlns="http://www.w3.org/2000/svg" xmlns:xlink="http://www.w3.org/1999/xlink" xml:space="preserve" xmlns:serif="http://www.serif.com/" style="fill-rule:evenodd;clip-rule:evenodd;stroke-linejoin:round;stroke-miterlimit:2;">
    <g transform="matrix(1,0,0,1,-35.4331,-7.0864)">
        <g id="Calque_1">
            <g>
                <path d="M55.772,7.163C55.388,7.086 55.004,7.086 54.621,7.086C49.402,7.086 44.643,9.312 40.499,13.764C36.661,17.755 35.433,21.055 35.433,24.969C35.433,27.041 35.817,29.344 36.354,32.03C37.352,37.096 40.422,42.008 44.643,45.538C47.867,48.225 51.474,49.529 55.311,49.606C57.307,49.606 59.302,49.299 61.375,48.532C67.975,46.229 74.346,39.705 76.802,32.644C77.569,30.418 77.953,28.193 77.953,26.12C77.953,21.055 75.65,16.603 71.199,13.457C65.749,9.542 60.607,7.393 55.772,7.163Z" style="fill:rgb(34,45,69);fill-rule:nonzero;"/>
                <g>
                    <path d="M48.174,28.346L46.715,28.346L46.715,28.423C46.715,28.73 46.562,31.186 44.336,31.186C42.341,31.186 41.343,29.421 41.343,25.89C41.343,22.36 42.341,20.594 44.336,20.594C46.562,20.594 46.715,23.204 46.715,23.357L46.715,23.434L48.174,23.434C48.327,23.434 48.481,23.357 48.557,23.281C48.634,23.204 48.711,23.05 48.711,22.974C48.711,22.283 48.327,18.829 44.336,18.829C41.113,18.829 39.424,21.285 39.424,25.89C39.424,30.495 41.113,32.951 44.336,32.951C48.174,32.951 48.634,29.805 48.711,28.883C48.711,28.73 48.634,28.653 48.557,28.5C48.481,28.423 48.327,28.346 48.174,28.346Z" style="fill:white;fill-rule:nonzero;"/>
                    <path d="M70.815,25.046L69.587,24.509C68.359,23.971 67.975,23.434 67.975,22.513C67.975,21.285 68.82,20.518 70.201,20.518C70.969,20.518 71.583,20.671 72.35,21.439L72.427,21.515L73.041,20.901C73.425,20.518 73.348,20.211 73.118,19.98C72.504,19.213 71.429,18.752 70.124,18.752C67.745,18.752 65.98,20.364 65.98,22.513C65.98,24.662 67.284,25.506 68.743,26.197L70.048,26.734C71.352,27.272 71.966,27.809 71.966,29.037C71.966,30.726 70.431,31.186 69.51,31.186C68.743,31.186 67.898,31.033 66.824,29.805L66.747,29.728L66.133,30.419C65.749,30.726 65.749,31.033 66.133,31.416C67.131,32.644 68.513,32.875 69.51,32.875C71.659,32.875 73.885,31.57 73.885,28.96C73.885,26.811 72.657,25.813 70.815,25.046Z" style="fill:white;fill-rule:nonzero;"/>
                    <path d="M58.458,22.897C58.458,20.748 56.693,18.906 54.467,18.906C53.469,18.906 52.472,19.29 51.781,19.904L51.781,19.136L50.476,19.136C50.092,19.136 49.939,19.366 49.939,19.673L49.939,32.414C49.939,32.798 50.169,32.951 50.476,32.951L51.781,32.951L51.781,22.974C51.781,21.669 52.855,20.594 54.16,20.594C55.465,20.594 56.539,21.669 56.539,22.974L56.539,33.028L57.844,33.028C58.228,33.028 58.381,32.798 58.381,32.491C58.458,32.414 58.458,22.897 58.458,22.897Z" style="fill:white;fill-rule:nonzero;"/>
                    <path d="M65.98,19.75C66.056,19.673 66.056,19.597 66.056,19.443C66.056,19.213 65.903,19.059 65.749,18.983C65.366,18.829 64.982,18.829 64.521,18.829C63.524,18.829 62.526,19.213 61.835,19.827L61.835,19.059L60.53,19.059C60.147,19.059 59.993,19.29 59.993,19.597L59.993,32.414C59.993,32.798 60.223,32.951 60.53,32.951L61.835,32.951L61.835,22.897C61.835,21.592 62.91,20.518 64.214,20.518C64.521,20.518 64.905,20.594 65.212,20.748L65.98,19.75Z" style="fill:white;fill-rule:nonzero;"/>
                </g>
            </g>
        </g>
    </g>
</svg>
