<?xml version="1.0" encoding="UTF-8" standalone="no"?>
<!DOCTYPE svg PUBLIC "-//W3C//DTD SVG 1.1//EN" "http://www.w3.org/Graphics/SVG/1.1/DTD/svg11.dtd">
<svg width="180pt" height="28pt" viewBox="0 0 1174 215" version="1.1" xmlns="http://www.w3.org/2000/svg" xmlns:xlink="http://www.w3.org/1999/xlink" xml:space="preserve" xmlns:serif="http://www.serif.com/" style="fill-rule:evenodd;clip-rule:evenodd;stroke-linejoin:round;stroke-miterlimit:2;">
    <g transform="matrix(1,0,0,1,0,-2.59584)">
        <g transform="matrix(4.16667,0,0,4.16667,0,0)">
            <path d="M74.588,26.19C71.054,20.42 67.678,13.648 63.796,10.386L63.806,10.377C68.829,14.608 74.938,17.492 78.436,18.164C84.455,19.323 85.196,32.043 91.556,33.541C90.079,35.018 88.107,36.064 85.402,36.064C81.305,36.064 77.879,31.563 74.588,26.19Z" style="fill:rgb(186,219,243);fill-rule:nonzero;"/>
            <path d="M48.9,20.559C51.803,13.697 55.066,8.437 59.191,8.437C60.82,8.437 62.344,9.166 63.796,10.386C67.678,13.648 71.054,20.42 74.588,26.19C53.53,28.983 46.681,37.155 36.86,49.665L36.851,49.658C41.141,44.267 44.626,30.671 48.9,20.559Z" style="fill:url(#_Linear1);"/>
            <path d="M21.953,29.606C19.426,16.923 18.168,3.153 16.947,0.933L16.952,0.931C23.103,9.666 36.29,21.349 48.9,20.559C44.626,30.671 41.141,44.267 36.851,49.658C35.675,51.139 34.434,52 33.103,52C27.676,52 24.277,41.262 21.953,29.606Z" style="fill:rgb(186,219,243);fill-rule:nonzero;"/>
            <path d="M11.658,24.659C13.376,14.123 15.074,0.623 16.612,0.623C16.726,0.623 16.836,0.729 16.947,0.933C18.168,3.153 19.426,16.923 21.953,29.606C17.231,30.702 10.012,35.879 8.614,36.862L8.599,36.842C9.605,36.133 10.634,30.92 11.658,24.659Z" style="fill:url(#_Linear2);"/>
            <path d="M11.658,24.659C10.634,30.92 9.605,36.133 8.599,36.842C8.522,36.899 8.444,36.925 8.368,36.925C5.599,36.925 4.905,25.397 0,17.851C5.023,19.629 9.374,23.172 11.658,24.659Z" style="fill:rgb(186,219,243);fill-rule:nonzero;"/>
            <rect x="108.745" y="10.23" width="1.896" height="16.01" style="fill:rgb(34,59,126);fill-rule:nonzero;"/>
            <path d="M114.409,26.24L114.409,17.095C114.409,16.159 114.385,15.223 114.29,14.287L115.897,14.287L115.969,16.351C116.809,14.815 118.105,14.046 119.833,14.046C122.906,14.046 123.842,16.063 123.842,18.823L123.842,26.24L122.114,26.24L122.114,19.159C122.114,17.263 121.729,15.535 119.425,15.535C116.929,15.535 116.161,17.695 116.161,19.807L116.161,26.24L114.409,26.24Z" style="fill:rgb(34,59,126);fill-rule:nonzero;"/>
            <path d="M126.817,24.32C127.776,24.824 128.664,25.064 129.744,25.064C131.088,25.064 132.025,24.416 132.025,23.072C132.025,20.168 126.864,21.007 126.864,17.359C126.864,14.958 128.856,14.046 130.729,14.046C131.713,14.046 132.601,14.239 133.441,14.55L133.202,16.063C132.458,15.703 131.592,15.462 130.752,15.462C129.817,15.462 128.617,15.823 128.617,17.263C128.617,19.664 133.825,18.919 133.825,22.927C133.825,25.232 131.881,26.504 129.768,26.504C128.617,26.504 127.561,26.36 126.6,25.952L126.817,24.32Z" style="fill:rgb(34,59,126);fill-rule:nonzero;"/>
            <path d="M142.297,26.144C141.697,26.408 141,26.504 140.352,26.504C137.905,26.504 137.592,24.728 137.592,22.544L137.592,15.655L135.336,15.655L135.336,14.287L137.592,14.287L137.592,11.598L139.321,10.999L139.321,14.287L142.033,14.287L142.033,15.655L139.321,15.655L139.321,23C139.321,24.055 139.608,24.992 140.857,24.992C141.336,24.992 141.745,24.872 142.201,24.679L142.297,26.144Z" style="fill:rgb(34,59,126);fill-rule:nonzero;"/>
            <path d="M144.551,26.24L144.551,14.287L146.304,14.287L146.304,26.24L144.551,26.24ZM144.551,11.623L144.551,9.535L146.304,9.535L146.304,11.623L144.551,11.623Z" style="fill:rgb(34,59,126);fill-rule:nonzero;"/>
            <path d="M155.401,26.144C154.8,26.408 154.104,26.504 153.456,26.504C151.008,26.504 150.696,24.728 150.696,22.544L150.696,15.655L148.44,15.655L148.44,14.287L150.696,14.287L150.696,11.598L152.424,10.999L152.424,14.287L155.136,14.287L155.136,15.655L152.424,15.655L152.424,23C152.424,24.055 152.711,24.992 153.96,24.992C154.44,24.992 154.848,24.872 155.304,24.679L155.401,26.144Z" style="fill:rgb(34,59,126);fill-rule:nonzero;"/>
            <path d="M159.36,21.368C159.36,23.263 159.719,24.992 162,24.992C164.497,24.992 165.264,22.832 165.264,20.719L165.264,14.287L166.993,14.287L166.993,23.431C166.993,24.368 167.016,25.303 167.112,26.24L165.504,26.24L165.456,24.175C164.616,25.712 163.344,26.504 161.592,26.504C158.543,26.504 157.608,24.463 157.608,21.679L157.608,14.287L159.36,14.287L159.36,21.368Z" style="fill:rgb(34,59,126);fill-rule:nonzero;"/>
            <path d="M176.112,26.144C175.512,26.408 174.816,26.504 174.167,26.504C171.719,26.504 171.407,24.728 171.407,22.544L171.407,15.655L169.151,15.655L169.151,14.287L171.407,14.287L171.407,11.598L173.135,10.999L173.135,14.287L175.848,14.287L175.848,15.655L173.135,15.655L173.135,23C173.135,24.055 173.423,24.992 174.672,24.992C175.152,24.992 175.559,24.872 176.016,24.679L176.112,26.144Z" style="fill:rgb(34,59,126);fill-rule:nonzero;"/>
            <path d="M185.422,26.24L185.422,10.23L188.975,10.23L188.975,23.408L195.864,23.408L195.864,26.24L185.422,26.24Z" style="fill:rgb(34,59,126);fill-rule:nonzero;"/>
            <path d="M204.19,20.504C202.247,20.504 200.134,20.863 200.134,22.664C200.134,23.839 200.878,24.44 201.911,24.44C203.926,24.44 204.863,22.784 204.863,21.007L204.863,20.504L204.19,20.504ZM205.055,26.24L204.983,24.463C204.143,25.784 202.871,26.504 201.046,26.504C198.838,26.504 196.965,25.208 196.965,22.807C196.965,19.615 200.038,18.751 203.422,18.751C203.878,18.751 204.407,18.775 204.863,18.799L204.863,18.391C204.863,16.687 203.831,16.039 202.006,16.039C200.926,16.039 199.606,16.351 198.478,16.951L198.334,14.743C199.583,14.239 201.143,13.951 202.487,13.951C205.727,13.951 208.055,15.103 208.055,18.631L208.055,23.408C208.055,24.631 208.079,25.4 208.174,26.24L205.055,26.24Z" style="fill:rgb(34,59,126);fill-rule:nonzero;"/>
            <path d="M210.958,26.24L210.958,16.879C210.958,15.991 210.934,15.079 210.838,14.191L213.958,14.191L214.006,16.207C214.798,14.67 216.214,13.951 217.918,13.951C220.823,13.951 221.999,15.679 221.999,18.439L221.999,26.24L218.686,26.24L218.686,19.208C218.686,17.767 218.471,16.327 216.67,16.327C214.798,16.327 214.27,18.007 214.27,19.591L214.27,26.24L210.958,26.24Z" style="fill:rgb(34,59,126);fill-rule:nonzero;"/>
            <path d="M230.422,23.935C232.462,23.935 233.039,21.824 233.039,20.191C233.039,18.511 232.51,16.279 230.422,16.279C228.239,16.279 227.854,18.463 227.854,20.191C227.854,21.032 227.95,21.944 228.334,22.687C228.718,23.383 229.366,23.935 230.422,23.935ZM225.43,28.52C226.558,29.12 227.782,29.408 229.102,29.408C231.766,29.408 232.967,27.896 232.967,25.472L232.967,24.175C232.126,25.496 230.735,26.24 229.198,26.24C225.694,26.24 224.301,23.24 224.301,20.168C224.301,16.951 225.694,13.951 229.247,13.951C230.903,13.951 232.319,14.647 233.063,16.183L233.063,14.191L236.279,14.191L236.279,25.472C236.279,29.6 233.879,31.688 229.823,31.688C228.286,31.688 226.75,31.497 225.286,31.041L225.43,28.52Z" style="fill:rgb(34,59,126);fill-rule:nonzero;"/>
            <path d="M246.886,19.063C246.886,17.551 246.407,15.943 244.583,15.943C242.758,15.943 241.894,17.527 241.822,19.063L246.886,19.063ZM241.822,20.935C241.894,23.024 243.213,24.295 245.782,24.295C246.958,24.295 248.254,23.984 249.094,23.504L249.239,25.808C248.278,26.215 246.718,26.504 245.399,26.504C240.958,26.504 238.582,24.175 238.582,20.168C238.582,16.591 241.006,13.951 244.558,13.951C248.422,13.951 249.863,16.495 249.863,20.143L249.863,20.935L241.822,20.935Z" style="fill:rgb(34,59,126);fill-rule:nonzero;"/>
            <path d="M254.59,26.24L250.75,14.191L254.23,14.191L256.773,23.744L259.294,14.191L262.606,14.191L258.743,26.24L254.59,26.24Z" style="fill:rgb(34,59,126);fill-rule:nonzero;"/>
            <path d="M264.262,26.24L264.262,14.191L267.574,14.191L267.574,26.24L264.262,26.24ZM264.262,11.958L264.262,9.294L267.574,9.294L267.574,11.958L264.262,11.958Z" style="fill:rgb(34,59,126);fill-rule:nonzero;"/>
            <path d="M270.573,26.24L270.573,16.879C270.573,15.991 270.549,15.079 270.454,14.191L273.573,14.191L273.622,16.207C274.414,14.67 275.83,13.951 277.534,13.951C280.438,13.951 281.614,15.679 281.614,18.439L281.614,26.24L278.301,26.24L278.301,19.208C278.301,17.767 278.086,16.327 276.286,16.327C274.414,16.327 273.885,18.007 273.885,19.591L273.885,26.24L270.573,26.24Z" style="fill:rgb(34,59,126);fill-rule:nonzero;"/>
            <path d="M111.747,44.035C113.618,44.035 114.338,42.319 114.338,40.7C114.338,39.081 113.618,37.366 111.747,37.366C109.913,37.366 109.145,39.105 109.145,40.7C109.145,41.504 109.336,42.332 109.756,42.966C110.188,43.602 110.836,44.035 111.747,44.035ZM108.149,40.7C108.149,38.494 109.336,36.575 111.747,36.575C114.206,36.575 115.345,38.433 115.345,40.7C115.345,42.918 114.159,44.826 111.747,44.826C111.135,44.826 110.596,44.718 110.14,44.501C108.797,43.854 108.149,42.427 108.149,40.7Z" style="fill:rgb(34,59,126);fill-rule:nonzero;"/>
            <path d="M117.569,44.694L117.569,36.694L118.9,36.694L122.75,43.71L122.75,36.694L123.637,36.694L123.637,44.694L122.306,44.694L118.456,37.677L118.456,44.694L117.569,44.694Z" style="fill:rgb(34,59,126);fill-rule:nonzero;"/>
            <path d="M127.228,43.915L127.9,43.915C130.155,43.915 131.51,42.918 131.51,40.581C131.51,38.565 130.358,37.474 128.332,37.474L127.228,37.474L127.228,43.915ZM126.281,44.694L126.281,36.694L128.368,36.694C130.922,36.694 132.505,37.978 132.505,40.581C132.505,43.411 130.575,44.694 127.924,44.694L126.281,44.694Z" style="fill:rgb(34,59,126);fill-rule:nonzero;"/>
            <path d="M134.692,44.694L134.692,36.694L138.818,36.694L138.818,37.474L135.639,37.474L135.639,40.208L138.663,40.208L138.663,40.964L135.639,40.964L135.639,43.915L138.95,43.915L138.95,44.694L134.692,44.694Z" style="fill:rgb(34,59,126);fill-rule:nonzero;"/>
            <path d="M140.789,43.567C141.352,43.915 141.963,44.035 142.635,44.035C143.547,44.035 144.266,43.638 144.266,42.583C144.266,41.744 143.631,41.348 142.887,40.964L142.24,40.616C141.472,40.197 140.86,39.705 140.86,38.649C140.86,37.198 142.144,36.575 143.439,36.575C144.002,36.575 144.495,36.659 144.987,36.862L144.878,37.713C144.447,37.474 143.943,37.366 143.452,37.366C142.612,37.366 141.833,37.654 141.833,38.613C141.833,39.273 142.311,39.645 142.948,39.98L143.595,40.329C144.495,40.808 145.25,41.299 145.25,42.523C145.25,44.022 144.014,44.826 142.647,44.826C141.963,44.826 141.292,44.73 140.68,44.454L140.789,43.567Z" style="fill:rgb(34,59,126);fill-rule:nonzero;"/>
            <path d="M151.385,44.694L151.385,36.694L155.51,36.694L155.51,37.474L152.333,37.474L152.333,40.208L155.354,40.208L155.354,40.964L152.333,40.964L152.333,43.915L155.643,43.915L155.643,44.694L151.385,44.694Z" style="fill:rgb(34,59,126);fill-rule:nonzero;"/>
            <path d="M159.292,44.694L159.292,37.51L156.917,37.51L156.917,36.694L162.638,36.694L162.638,37.51L160.251,37.51L160.251,44.694L159.292,44.694Z" style="fill:rgb(34,59,126);fill-rule:nonzero;"/>
            <rect x="168.22" y="36.694" width="0.947" height="8" style="fill:rgb(34,59,126);fill-rule:nonzero;"/>
            <path d="M171.795,44.694L171.795,36.694L173.258,36.694L176.005,43.638L178.728,36.694L180.192,36.694L180.192,44.694L179.268,44.694L179.268,37.474L176.438,44.694L175.514,44.694L172.683,37.474L172.683,44.694L171.795,44.694Z" style="fill:rgb(34,59,126);fill-rule:nonzero;"/>
            <path d="M183.903,41.755L187.261,41.755L185.594,37.462L183.903,41.755ZM181.852,44.694L185.042,36.694L186.158,36.694L189.36,44.694L188.376,44.694L187.549,42.523L183.627,42.523L182.776,44.694L181.852,44.694Z" style="fill:rgb(34,59,126);fill-rule:nonzero;"/>
            <path d="M196.873,44.43C196.057,44.718 195.458,44.826 194.629,44.826C192.087,44.826 190.336,43.338 190.336,40.7C190.336,38.122 192.196,36.575 194.629,36.575C195.313,36.575 196.189,36.694 196.813,36.97L196.741,37.833C196.118,37.486 195.397,37.377 194.69,37.377C192.711,37.377 191.332,38.565 191.332,40.7C191.332,42.763 192.59,44.022 194.642,44.022C195.158,44.022 195.494,43.986 195.961,43.854L195.961,41.144L194.163,41.144L194.163,40.388L196.873,40.388L196.873,44.43Z" style="fill:rgb(34,59,126);fill-rule:nonzero;"/>
            <path d="M199.372,44.694L199.372,36.694L203.497,36.694L203.497,37.474L200.319,37.474L200.319,40.208L203.34,40.208L203.34,40.964L200.319,40.964L200.319,43.915L203.629,43.915L203.629,44.694L199.372,44.694Z" style="fill:rgb(34,59,126);fill-rule:nonzero;"/>
            <path d="M205.467,43.567C206.032,43.915 206.643,44.035 207.315,44.035C208.225,44.035 208.946,43.638 208.946,42.583C208.946,41.744 208.309,41.348 207.567,40.964L206.918,40.616C206.151,40.197 205.54,39.705 205.54,38.649C205.54,37.198 206.823,36.575 208.118,36.575C208.682,36.575 209.173,36.659 209.665,36.862L209.557,37.713C209.125,37.474 208.622,37.366 208.129,37.366C207.291,37.366 206.51,37.654 206.51,38.613C206.51,39.273 206.991,39.645 207.625,39.98L208.274,40.329C209.173,40.808 209.928,41.299 209.928,42.523C209.928,44.022 208.694,44.826 207.327,44.826C206.643,44.826 205.971,44.73 205.36,44.454L205.467,43.567Z" style="fill:rgb(34,59,126);fill-rule:nonzero;"/>
        </g>
    </g>
    <defs>
        <linearGradient id="_Linear1" x1="0" y1="0" x2="1" y2="0" gradientUnits="userSpaceOnUse" gradientTransform="matrix(-8.31667e-07,-19.0263,19.0263,-8.31667e-07,55.7192,29.2149)"><stop offset="0" style="stop-color:rgb(90,173,224);stop-opacity:1"/><stop offset="0.9" style="stop-color:rgb(34,75,140);stop-opacity:1"/><stop offset="1" style="stop-color:rgb(34,60,127);stop-opacity:1"/></linearGradient>
        <linearGradient id="_Linear2" x1="0" y1="0" x2="1" y2="0" gradientUnits="userSpaceOnUse" gradientTransform="matrix(-8.31666e-07,-19.0263,19.0263,-8.31666e-07,15.2764,29.2149)"><stop offset="0" style="stop-color:rgb(90,173,224);stop-opacity:1"/><stop offset="0.9" style="stop-color:rgb(34,75,140);stop-opacity:1"/><stop offset="1" style="stop-color:rgb(34,60,127);stop-opacity:1"/></linearGradient>
    </defs>
</svg>
